<svg xmlns="http://www.w3.org/2000/svg" viewBox="0 0 160 160" role="img" aria-label="BrightMinds logo">
  <defs>
    <linearGradient id="logoBg" x1="18" y1="12" x2="138" y2="146" gradientUnits="userSpaceOnUse">
      <stop offset="0" stop-color="#3d6df6"/>
      <stop offset="0.52" stop-color="#22a7d6"/>
      <stop offset="1" stop-color="#19b893"/>
    </linearGradient>
  </defs>
  <rect x="10" y="10" width="140" height="140" rx="34" fill="url(#logoBg)"/>
  <path d="M46 96c-14-4-22-16-22-32 0-20 16-36 36-36 9 0 18 4 24 10 7-7 17-10 28-10 18 0 32 14 32 32 0 17-11 30-27 34" fill="#ffffff"/>
  <path d="M47 96c4 25 25 40 50 40 26 0 46-20 46-45" fill="#bdf5a4"/>
  <path d="M50 64h21m-11-11v22m44-20 18 18m0-18-18 18" stroke="#172033" stroke-width="8" stroke-linecap="round"/>
  <circle cx="64" cy="101" r="7" fill="#172033"/>
  <circle cx="101" cy="101" r="7" fill="#172033"/>
  <path d="M73 120c9 7 24 7 33 0" fill="none" stroke="#172033" stroke-width="8" stroke-linecap="round"/>
</svg>
